<mxfile host="app.diagrams.net" agent="Mozilla/5.0 (Windows NT 10.0; Win64; x64) AppleWebKit/537.36 (KHTML, like Gecko) Chrome/131.0.0.0 Safari/537.36" version="26.0.5">
  <diagram name="Page-1" id="l1_jztRIy9dwtjOu1S3I">
    <mxGraphModel dx="1008" dy="592" grid="1" gridSize="10" guides="1" tooltips="1" connect="1" arrows="1" fold="1" page="1" pageScale="1" pageWidth="850" pageHeight="1100" math="0" shadow="0">
      <root>
        <mxCell id="0" />
        <mxCell id="1" parent="0" />
        <mxCell id="Efzrcn-xcoAGlpbLV3ew-3" value="" style="edgeStyle=orthogonalEdgeStyle;rounded=0;orthogonalLoop=1;jettySize=auto;html=1;endArrow=none;endFill=0;" edge="1" parent="1" source="Efzrcn-xcoAGlpbLV3ew-1" target="Efzrcn-xcoAGlpbLV3ew-2">
          <mxGeometry relative="1" as="geometry" />
        </mxCell>
        <mxCell id="Efzrcn-xcoAGlpbLV3ew-1" value="&lt;h3&gt;Data Governance Council&lt;/h3&gt;&lt;h3&gt;&lt;span style=&quot;background-color: transparent; color: light-dark(rgb(0, 0, 0), rgb(255, 255, 255)); font-size: 12px; font-weight: normal;&quot;&gt;Exceutive Sponsors&lt;/span&gt;&lt;/h3&gt;" style="whiteSpace=wrap;html=1;" vertex="1" parent="1">
          <mxGeometry x="300" y="40" width="215" height="80" as="geometry" />
        </mxCell>
        <mxCell id="Efzrcn-xcoAGlpbLV3ew-10" value="" style="edgeStyle=orthogonalEdgeStyle;rounded=0;orthogonalLoop=1;jettySize=auto;html=1;endArrow=none;endFill=0;" edge="1" parent="1" source="Efzrcn-xcoAGlpbLV3ew-2" target="Efzrcn-xcoAGlpbLV3ew-7">
          <mxGeometry relative="1" as="geometry">
            <Array as="points">
              <mxPoint x="400" y="340" />
              <mxPoint x="400" y="340" />
            </Array>
          </mxGeometry>
        </mxCell>
        <mxCell id="Efzrcn-xcoAGlpbLV3ew-2" value="Data Governance Office&lt;div&gt;&lt;br&gt;&lt;div&gt;&lt;span style=&quot;font-weight: 400;&quot;&gt;Program Management&lt;/span&gt;&lt;/div&gt;&lt;/div&gt;" style="whiteSpace=wrap;html=1;fillColor=#dae8fc;strokeColor=#6c8ebf;fontStyle=1" vertex="1" parent="1">
          <mxGeometry x="322.5" y="200" width="170" height="70" as="geometry" />
        </mxCell>
        <mxCell id="Efzrcn-xcoAGlpbLV3ew-18" style="edgeStyle=orthogonalEdgeStyle;rounded=0;orthogonalLoop=1;jettySize=auto;html=1;exitX=0.5;exitY=0;exitDx=0;exitDy=0;entryX=0.5;entryY=0;entryDx=0;entryDy=0;endArrow=none;endFill=0;" edge="1" parent="1" source="Efzrcn-xcoAGlpbLV3ew-4" target="Efzrcn-xcoAGlpbLV3ew-9">
          <mxGeometry relative="1" as="geometry">
            <mxPoint x="600" y="310" as="targetPoint" />
            <Array as="points">
              <mxPoint x="170" y="320" />
              <mxPoint x="660" y="320" />
            </Array>
          </mxGeometry>
        </mxCell>
        <mxCell id="Efzrcn-xcoAGlpbLV3ew-25" style="edgeStyle=orthogonalEdgeStyle;rounded=0;orthogonalLoop=1;jettySize=auto;html=1;exitX=0.5;exitY=1;exitDx=0;exitDy=0;entryX=0.5;entryY=0;entryDx=0;entryDy=0;endArrow=none;endFill=0;" edge="1" parent="1" source="Efzrcn-xcoAGlpbLV3ew-4" target="Efzrcn-xcoAGlpbLV3ew-22">
          <mxGeometry relative="1" as="geometry" />
        </mxCell>
        <mxCell id="Efzrcn-xcoAGlpbLV3ew-4" value="&lt;b&gt;Data Owners&lt;/b&gt;&lt;div&gt;&lt;b&gt;&lt;br&gt;&lt;/b&gt;&lt;/div&gt;&lt;div&gt;Business Unit Leaders&lt;/div&gt;" style="whiteSpace=wrap;html=1;fillColor=#ffe6cc;strokeColor=#d79b00;" vertex="1" parent="1">
          <mxGeometry x="100" y="370" width="140" height="60" as="geometry" />
        </mxCell>
        <mxCell id="Efzrcn-xcoAGlpbLV3ew-28" style="edgeStyle=orthogonalEdgeStyle;rounded=0;orthogonalLoop=1;jettySize=auto;html=1;exitX=0.5;exitY=1;exitDx=0;exitDy=0;entryX=0.5;entryY=0;entryDx=0;entryDy=0;endArrow=none;endFill=0;" edge="1" parent="1" source="Efzrcn-xcoAGlpbLV3ew-7" target="Efzrcn-xcoAGlpbLV3ew-23">
          <mxGeometry relative="1" as="geometry" />
        </mxCell>
        <mxCell id="Efzrcn-xcoAGlpbLV3ew-7" value="&lt;b&gt;Data Steward&lt;/b&gt;&lt;div&gt;&lt;b&gt;&lt;br&gt;&lt;/b&gt;&lt;/div&gt;&lt;div&gt;Subject Matter Experts&lt;/div&gt;" style="whiteSpace=wrap;html=1;fillColor=#ffe6cc;strokeColor=#d79b00;" vertex="1" parent="1">
          <mxGeometry x="322.5" y="370" width="160" height="60" as="geometry" />
        </mxCell>
        <mxCell id="Efzrcn-xcoAGlpbLV3ew-27" style="edgeStyle=orthogonalEdgeStyle;rounded=0;orthogonalLoop=1;jettySize=auto;html=1;exitX=0.5;exitY=1;exitDx=0;exitDy=0;entryX=0.5;entryY=0;entryDx=0;entryDy=0;endArrow=none;endFill=0;" edge="1" parent="1" source="Efzrcn-xcoAGlpbLV3ew-9" target="Efzrcn-xcoAGlpbLV3ew-24">
          <mxGeometry relative="1" as="geometry" />
        </mxCell>
        <mxCell id="Efzrcn-xcoAGlpbLV3ew-9" value="&lt;b&gt;Data Custodians&lt;/b&gt;&lt;div&gt;&lt;b&gt;&lt;br&gt;&lt;/b&gt;&lt;/div&gt;&lt;div&gt;Technical Terms&lt;/div&gt;" style="whiteSpace=wrap;html=1;fillColor=#ffe6cc;strokeColor=#d79b00;" vertex="1" parent="1">
          <mxGeometry x="580" y="370" width="160" height="60" as="geometry" />
        </mxCell>
        <mxCell id="Efzrcn-xcoAGlpbLV3ew-22" value="&lt;div&gt;&lt;b&gt;Data Quality&lt;/b&gt;&lt;/div&gt;&lt;div&gt;&lt;b&gt;&lt;br&gt;&lt;/b&gt;&lt;/div&gt;&lt;div&gt;Working Group&lt;/div&gt;" style="whiteSpace=wrap;html=1;fillColor=#e1d5e7;strokeColor=#9673a6;" vertex="1" parent="1">
          <mxGeometry x="90" y="520" width="160" height="60" as="geometry" />
        </mxCell>
        <mxCell id="Efzrcn-xcoAGlpbLV3ew-23" value="&lt;div&gt;&lt;b&gt;Metadata&lt;/b&gt;&lt;/div&gt;&lt;div&gt;&lt;b&gt;&lt;br&gt;&lt;/b&gt;&lt;/div&gt;&lt;div&gt;Working Group&lt;/div&gt;" style="whiteSpace=wrap;html=1;fillColor=#e1d5e7;strokeColor=#9673a6;" vertex="1" parent="1">
          <mxGeometry x="322.5" y="520" width="160" height="60" as="geometry" />
        </mxCell>
        <mxCell id="Efzrcn-xcoAGlpbLV3ew-24" value="&lt;div&gt;&lt;b&gt;Security &amp;amp; Privacy&lt;/b&gt;&lt;/div&gt;&lt;div&gt;&lt;b&gt;&lt;br&gt;&lt;/b&gt;&lt;/div&gt;&lt;div&gt;Working Group&lt;/div&gt;" style="whiteSpace=wrap;html=1;fillColor=#e1d5e7;strokeColor=#9673a6;" vertex="1" parent="1">
          <mxGeometry x="580" y="520" width="160" height="60" as="geometry" />
        </mxCell>
      </root>
    </mxGraphModel>
  </diagram>
</mxfile>
